<?xml version="1.0" encoding="iso-8859-1"?>
<!-- Generator: Adobe Illustrator 19.0.0, SVG Export Plug-In . SVG Version: 6.00 Build 0)  -->
<svg version="1.1" id="Capa_1" xmlns="http://www.w3.org/2000/svg" xmlns:xlink="http://www.w3.org/1999/xlink" x="0px" y="0px"
	 viewBox="0 0 509.984 509.984" style="enable-background:new 0 0 509.984 509.984;" xml:space="preserve">
<path style="fill:#B0BEC5;" d="M443.157,362.321c-4.286-5.269-11.432-7.258-17.824-4.96c-18.406,6.491-37.796,9.75-57.312,9.632
	c-97.202-0.102-175.917-78.983-175.815-176.185c0.061-58.167,28.857-112.547,76.935-145.287c7.316-4.955,9.23-14.904,4.275-22.22
	c-2.532-3.738-6.525-6.232-10.995-6.868c-7.422-1.02-14.908-1.501-22.4-1.44C107.473,14.982,0.012,122.424,0,254.972
	s107.431,240.009,239.979,240.021c83.333,0.007,160.705-43.213,204.394-114.176C447.944,375.021,447.456,367.6,443.157,362.321z"/>
<path style="fill:#E3F2FD;" d="M427.893,174.993c-17.78-68.42-87.66-109.471-156.079-91.691
	c-33.105,8.603-61.39,30.099-78.545,59.691c-53.019-0.345-96.279,42.357-96.624,95.376s42.357,96.279,95.376,96.624h240
	c44.183-1.14,79.076-37.881,77.936-82.064S472.076,173.853,427.893,174.993z"/>
<path d="M240.021,494.993c-132.548,0-240-107.452-240-240s107.452-240,240-240c7.492-0.061,14.978,0.42,22.4,1.44
	c8.747,1.252,14.824,9.357,13.572,18.105c-0.642,4.485-3.155,8.488-6.916,11.015c-17.033,11.573-31.895,26.055-43.904,42.784
	c-5.161,7.175-15.161,8.809-22.336,3.648c-7.175-5.161-8.809-15.161-3.648-22.336c5.41-7.489,11.289-14.629,17.6-21.376
	C102.64,61.167,20.555,164.155,33.449,278.305S149.33,474.538,263.48,461.645c48.861-5.519,94.186-28.169,127.933-63.931
	c-36.325,3.901-73.043-1.609-106.624-16c-7.986-3.783-11.392-13.324-7.609-21.31c3.62-7.641,12.56-11.146,20.409-8.002
	c40.479,17.38,85.954,19.181,127.68,5.056c8.276-3.096,17.496,1.103,20.592,9.38c1.737,4.644,1.223,9.831-1.392,14.044
	C401.001,452.093,323.45,495.378,240.021,494.993z"/>
<path d="M432.021,334.993h-240c-53.019-0.336-95.728-43.589-95.392-96.608c0.336-53.019,43.589-95.728,96.608-95.392
	c35.432-61.172,113.746-82.037,174.917-46.605c29.623,17.159,51.139,45.469,59.739,78.605c44.183-1.14,80.924,33.753,82.064,77.936
	S476.204,333.853,432.021,334.993z M192.021,174.993c-35.346,0-64,28.654-64,64s28.654,64,64,64h240c26.51,0,48-21.49,48-48
	s-21.49-48-48-48c-4.215-0.056-8.416,0.482-12.48,1.6c-4.518,1.319-9.387,0.581-13.312-2.016c-3.907-2.592-6.481-6.768-7.04-11.424
	c-6.629-52.603-54.646-89.873-107.249-83.244c-32.645,4.114-60.91,24.66-74.895,54.444c-2.874,6.112-9.276,9.762-16,9.12
	C198.037,175.281,195.221,174.993,192.021,174.993z"/>
<g>
</g>
<g>
</g>
<g>
</g>
<g>
</g>
<g>
</g>
<g>
</g>
<g>
</g>
<g>
</g>
<g>
</g>
<g>
</g>
<g>
</g>
<g>
</g>
<g>
</g>
<g>
</g>
<g>
</g>
</svg>
