<?xml version="1.0" encoding="iso-8859-1"?>
<!-- Generator: Adobe Illustrator 19.0.0, SVG Export Plug-In . SVG Version: 6.00 Build 0)  -->
<svg version="1.1" id="Capa_1" xmlns="http://www.w3.org/2000/svg" xmlns:xlink="http://www.w3.org/1999/xlink" x="0px" y="0px"
	 viewBox="0 0 512.06 512.06" style="enable-background:new 0 0 512.06 512.06;" xml:space="preserve">
<g transform="translate(0 -1)">
	<g transform="translate(1 1)">
		<g>
			<path style="fill:#558B30;" d="M197.856,413.705c-39.982,24.877-92.552,12.745-117.589-27.136
				c-12.011-19.187-15.9-42.363-10.81-64.42c5.09-22.057,18.741-41.185,37.946-53.169c9.817-6.157,20.797-10.224,32.256-11.947
				c40.024-6.171,78.871,16.647,92.973,54.609S232.203,392.251,197.856,413.705z"/>
			<path style="fill:#558B30;" d="M435.083,453.556c-15.852,34.759-52.861,54.762-90.624,48.981
				c-7.751-1.223-15.301-3.491-22.443-6.741c-31.408-14.323-51.095-46.156-49.881-80.654s23.089-64.869,55.426-76.949
				c32.337-12.081,68.767-3.492,92.303,21.76C443.4,385.205,449.406,422.148,435.083,453.556z"/>
		</g>
		<g>
			<path style="fill:#8BC34A;" d="M172.256,413.705c-9.823,6.207-20.842,10.278-32.341,11.947
				c-41.704-6.242-72.582-42.031-72.646-84.199c-0.064-42.168,30.705-78.051,72.39-84.419c35.345,5.25,63.666,31.983,70.945,66.966
				S202.574,394.794,172.256,413.705z"/>
			<path style="fill:#8BC34A;" d="M409.483,453.556c-11.991,26.277-36.458,44.708-65.024,48.981
				c-7.751-1.223-15.301-3.491-22.443-6.741c-34.404-15.68-54.386-52.13-49.103-89.567c5.283-37.437,34.573-66.934,71.972-72.48
				c7.751,1.223,15.301,3.491,22.443,6.741c20.587,9.399,36.596,26.594,44.502,47.8
				C419.737,409.495,418.892,432.973,409.483,453.556z"/>
		</g>
		<path style="fill:#CFD8DC;" d="M425.696,119.476h-0.216c0.057-1.427,0.216-2.826,0.216-4.267
			c0.014-50.412-35.276-93.947-84.6-104.365s-99.205,15.129-119.578,61.241c-20.197-25.774-54.523-35.895-85.473-25.201
			S84.34,86.731,84.363,119.476c-42.415,0-76.8,34.385-76.8,76.8s34.385,76.8,76.8,76.8h341.333c42.415,0,76.8-34.385,76.8-76.8
			S468.112,119.476,425.696,119.476z"/>
		<path style="fill:#607D8B;" d="M502.496,196.276c-0.004,42.414-34.386,76.796-76.8,76.8h-25.6c42.415,0,76.8-34.385,76.8-76.8
			s-34.385-76.8-76.8-76.8h-0.256c0.085-1.451,0.256-2.816,0.256-4.267c-0.051-53.787-40.078-99.151-93.44-105.899
			c4.104-0.513,8.237-0.77,12.373-0.768c58.902,0.021,106.645,47.765,106.667,106.667c0,1.451-0.171,2.816-0.256,4.267h0.256
			C468.11,119.479,502.493,153.862,502.496,196.276z"/>
	</g>
	<g>
		<path d="M435.167,112.359c-1.701-51.32-37.172-95.314-86.965-107.86c-49.792-12.545-101.875,9.389-127.69,53.777
			c-23.716-22.286-58.048-29.131-88.497-17.646S80.307,79.93,77.217,112.326c-44.586,4.249-78.287,42.265-77.161,87.039
			s36.697,81.047,81.44,83.049c-20.614,24.81-27.036,58.47-17.005,89.127s35.109,54.01,66.401,61.836
			c7.492,1.875,15.185,2.826,22.908,2.833c33.798-0.076,64.949-18.304,81.572-47.731s16.155-65.516-1.226-94.502
			c-2.453-3.986-5.196-7.785-8.208-11.366h200.758c45.48-0.002,82.967-35.671,85.227-81.095S480.422,116.876,435.167,112.359z
			 M219.526,302.776c21.193,35.172,10.97,80.792-23.205,103.557c-34.176,22.764-80.213,14.618-104.501-18.492
			s-18.236-79.468,13.74-105.232h96.276C208.847,288.265,214.831,295.087,219.526,302.776z M426.696,265.543H85.363
			c-37.703,0-68.267-30.564-68.267-68.267s30.564-68.267,68.267-68.267c2.263,0.001,4.434-0.898,6.035-2.499
			c1.6-1.6,2.499-3.771,2.499-6.035c-0.023-29.108,18.427-55.023,45.939-64.528s58.025-0.504,75.973,22.411
			c1.85,2.353,4.798,3.564,7.768,3.192c2.97-0.372,5.528-2.272,6.741-5.009c18.74-42.426,64.63-65.933,110.01-56.35
			s77.849,49.636,77.836,96.016c0,0.683-0.054,1.358-0.1,2.033l-0.108,1.883c-0.094,2.321,0.761,4.581,2.37,6.258
			c1.609,1.676,3.831,2.625,6.155,2.626h0.217c37.703,0,68.267,30.564,68.267,68.267S464.399,265.543,426.696,265.543
			L426.696,265.543z"/>
		<path d="M121.392,305.164c-10.918,9.089-14.058,24.541-7.554,37.17c8.083,11.677,23.192,16.173,36.344,10.816l11.928,19.88
			c-1.606,0.266-3.241,0.312-4.859,0.137c-3.111-0.275-5.937-1.925-7.704-4.5c-2.425-4.041-7.667-5.35-11.708-2.925
			c-4.041,2.425-5.35,7.667-2.925,11.708c4.408,7.046,11.791,11.695,20.05,12.625c1.496,0.2,3.003,0.301,4.513,0.3
			c4.02-0.042,8.007-0.739,11.803-2.065l1.389,2.315c2.425,4.041,7.667,5.35,11.708,2.925c4.041-2.425,5.35-7.667,2.925-11.708
			l-1.408-2.347c10.918-9.089,14.058-24.541,7.554-37.17c-8.081-11.681-23.193-16.18-36.347-10.82l-11.94-19.9
			c4.694-1.182,9.642,0.543,12.583,4.388c2.425,4.041,7.667,5.35,11.708,2.925c4.041-2.426,5.35-7.667,2.925-11.708
			c-8.084-11.678-23.192-16.177-36.348-10.826l-1.41-2.349c-1.569-2.614-4.413-4.192-7.462-4.141
			c-3.048,0.052-5.837,1.726-7.317,4.392c-1.479,2.666-1.424,5.918,0.145,8.532L121.392,305.164z M128.471,333.551
			c-2.006-4.405-1.199-9.581,2.052-13.167l10.527,17.545C136.36,339.106,131.418,337.386,128.471,333.551z M178.813,351.109
			c2.006,4.405,1.199,9.581-2.052,13.167l-10.53-17.551C170.924,345.549,175.867,347.272,178.813,351.109L178.813,351.109z"/>
		<path d="M358.405,513.059c48.015,0.086,88.369-36.043,93.574-83.776s-26.417-91.708-73.322-101.972s-94.002,16.489-109.208,62.032
			c-15.206,45.544,6.373,95.224,50.036,115.199C331.699,510.135,344.971,513.039,358.405,513.059z M288.58,387.259
			c12.894-28.262,41.544-45.973,72.589-44.875s58.371,20.79,69.236,49.892c10.865,29.102,3.129,61.884-19.6,83.058
			c-22.729,21.174-55.976,26.572-84.237,13.675c-18.62-8.353-33.119-23.817-40.257-42.936
			C279.172,426.954,279.989,405.772,288.58,387.259z"/>
		<path d="M330.57,459.693l-1.136,2.491c-1.271,2.774-0.963,6.016,0.806,8.502c1.77,2.486,4.732,3.837,7.769,3.545
			c3.037-0.293,5.687-2.185,6.95-4.963l1.096-2.401c2.599,0.564,5.249,0.852,7.908,0.859c11.334,0.522,21.919-5.657,27.037-15.783
			c3.308-7.627,2.956-16.347-0.954-23.683c-2.573-4.903-6.239-9.149-10.716-12.407l9.632-21.111
			c3.632,3.198,5.014,8.249,3.517,12.851c-1.947,4.285-0.056,9.339,4.226,11.292c4.283,1.954,9.338,0.07,11.299-4.209
			c5.044-13.277,0.192-28.277-11.674-36.084l1.136-2.491c1.285-2.777,0.986-6.029-0.786-8.523c-1.771-2.495-4.742-3.85-7.787-3.553
			s-5.698,2.203-6.952,4.993l-1.138,2.494c-13.673-3.847-28.183,2.318-34.904,14.831c-3.308,7.627-2.956,16.347,0.954,23.683
			c2.573,4.903,6.239,9.148,10.716,12.407l-9.632,21.112c-3.632-3.198-5.014-8.249-3.517-12.851
			c1.947-4.285,0.056-9.339-4.226-11.292s-9.338-0.07-11.299,4.209C313.853,436.887,318.705,451.886,330.57,459.693z
			 M364.813,435.959c1.536,2.72,1.779,5.983,0.663,8.9c-2.495,4.148-7.217,6.417-12.015,5.774l8.491-18.609
			C363.081,433.199,364.044,434.523,364.813,435.959z M352.088,402.326c-1.536-2.72-1.779-5.983-0.663-8.9
			c2.496-4.147,7.216-6.414,12.013-5.771l-8.489,18.606C353.819,405.087,352.856,403.763,352.088,402.326z"/>
	</g>
</g>
<g>
</g>
<g>
</g>
<g>
</g>
<g>
</g>
<g>
</g>
<g>
</g>
<g>
</g>
<g>
</g>
<g>
</g>
<g>
</g>
<g>
</g>
<g>
</g>
<g>
</g>
<g>
</g>
<g>
</g>
</svg>
