<svg id="Capa_1" enable-background="new 0 0 511.99 511.99" height="512" viewBox="0 0 511.99 511.99" width="512" xmlns="http://www.w3.org/2000/svg"><g><g><path d="m449.633 227.952c30.297 0 54.857-24.561 54.857-54.857s-24.561-54.857-54.857-54.857c0-52.756-42.767-95.523-95.523-95.523-18.218 0-35.241 5.104-49.727 13.954-9.241-17.261-27.441-29.006-48.389-29.006s-39.148 11.745-48.389 29.006c-14.486-8.85-31.509-13.954-49.727-13.954-52.756 0-95.523 42.767-95.523 95.523-30.297 0-54.857 24.561-54.857 54.857s24.561 54.857 54.857 54.857z" fill="#b1e4f9"/><path d="m138.093 208.657c-30.301 0-54.862-24.561-54.862-54.862s24.561-54.851 54.862-54.851c0-30.321 14.116-57.336 36.142-74.819-5.314-.933-10.78-1.41-16.367-1.41-52.752 0-95.516 42.764-95.516 95.526-30.301 0-54.862 24.561-54.862 54.852 0 30.301 24.561 54.862 54.862 54.862h387.276c16.732 0 31.71-7.494 41.77-19.298z" fill="#90d8f9"/><g fill="#ecf4ff"><path d="m255.843 284.55-19.46.916 12.658-21.715c3.204-5.497 1.854-12.715-3.425-16.268-5.784-3.893-13.556-2.046-17.011 3.882l-20.658 35.441-8.949.361c-14.672.591-26.727-11.464-26.135-26.136l.361-8.949 35.087-20.453c5.497-3.204 7.879-10.151 5.036-15.843-3.115-6.238-10.788-8.46-16.716-5.005l-22.069 12.864.916-19.461c.321-6.811-5.115-12.508-11.933-12.508h-18.566c-6.818 0-12.254 5.697-11.933 12.508l.916 19.461-22.069-12.864c-5.7-3.323-13.014-1.395-16.337 4.305-3.323 5.7-1.395 13.015 4.305 16.338l35.44 20.658.361 8.949c.591 14.672-11.463 26.727-26.136 26.136l-8.949-.361-20.453-35.087c-3.204-5.497-10.151-7.879-15.843-5.036-6.238 3.115-8.46 10.788-5.005 16.716l12.864 22.069-19.461-.916c-6.811-.321-12.508 5.115-12.508 11.933v18.566c0 6.818 5.697 12.254 12.508 11.933l19.461-.916-15.423 26.46c-3.087 5.297.733 11.946 6.864 11.946 5.7 3.323 13.015 1.396 16.337-4.305l20.658-35.44 8.949-.361c14.672-.591 26.727 11.463 26.136 26.136l-.361 8.949-35.44 20.659c-5.7 3.323-7.627 10.637-4.305 16.337 3.323 5.7 10.637 7.627 16.337 4.305l22.069-12.864-.916 19.461c-.321 6.811 5.115 12.508 11.933 12.508h18.565c6.818 0 12.254-5.697 11.933-12.508l-.916-19.461 21.716 12.658c5.497 3.204 12.715 1.854 16.268-3.425 3.893-5.784 2.045-13.556-3.882-17.011l-35.44-20.659-.361-8.949c-.591-14.672 11.463-26.727 26.135-26.136l8.949.361 20.659 35.44c3.323 5.7 10.637 7.628 16.337 4.305 5.7-3.323 7.627-10.637 4.305-16.337l-12.864-22.069 19.461.916c6.811.321 12.508-5.115 12.508-11.933v-18.565c0-6.821-5.697-12.257-12.508-11.936z"/><path d="m354.29 453.172-22.015-11.191 22.015-11.191c5.75-2.923 7.872-10.072 4.646-15.658l-4.992-8.647c-3.225-5.587-10.477-7.324-15.884-3.805l-20.699 13.47 1.316-24.661c.344-6.442-4.787-11.853-11.237-11.853h-9.984c-6.451 0-11.581 5.411-11.237 11.853l1.316 24.661-20.699-13.47c-5.407-3.518-12.658-1.781-15.884 3.805l-4.992 8.647c-3.225 5.586-1.104 12.735 4.646 15.658l22.015 11.191-22.015 11.191c-5.75 2.923-7.872 10.072-4.646 15.658l4.992 8.647c3.225 5.587 10.477 7.324 15.884 3.805l20.699-13.47-1.316 24.661c-.344 6.442 4.787 11.853 11.237 11.853h9.984c6.451 0 11.581-5.411 11.237-11.853l-1.316-24.661 20.699 13.47c5.407 3.518 12.658 1.781 15.884-3.805l4.992-8.647c3.225-5.587 1.104-12.735-4.646-15.658z"/><path d="m475.135 335.181-22.015-11.191 22.015-11.191c5.75-2.923 7.872-10.072 4.646-15.658l-4.992-8.647c-3.225-5.587-10.477-7.324-15.884-3.805l-20.699 13.47 1.316-24.661c.344-6.442-4.787-11.853-11.237-11.853h-9.984c-6.451 0-11.581 5.411-11.237 11.853l1.316 24.661-20.699-13.47c-5.407-3.518-12.658-1.781-15.884 3.805l-4.992 8.647c-3.225 5.587-1.104 12.735 4.646 15.658l22.015 11.191-22.015 11.191c-5.75 2.923-7.872 10.072-4.646 15.658l4.992 8.647c3.225 5.587 10.477 7.324 15.884 3.805l20.699-13.47-1.316 24.661c-.344 6.442 4.787 11.853 11.237 11.853h9.984c6.451 0 11.581-5.411 11.237-11.853l-1.316-24.661 20.699 13.47c5.407 3.518 12.658 1.781 15.884-3.805l4.992-8.647c3.226-5.586 1.105-12.735-4.646-15.658z"/></g></g><g><path d="m456.891 111.155c-1.255-18.523-7.43-36.208-18.046-51.523-2.359-3.404-7.032-4.252-10.437-1.891-3.404 2.359-4.251 7.032-1.892 10.437 10.214 14.734 15.613 32.043 15.613 50.057 0 4.142 3.357 7.5 7.5 7.5 26.114 0 47.36 21.246 47.36 47.36s-21.246 47.36-47.36 47.36h-227.6c-.067-2.721-.693-5.453-1.976-8.015-2.395-4.806-6.709-8.44-11.838-9.971-5.132-1.533-10.733-.864-15.361 1.836l-10.15 5.915.27-5.684c.247-5.283-1.705-10.508-5.358-14.336-3.653-3.829-8.783-6.024-14.074-6.024h-18.56c-5.291 0-10.421 2.196-14.074 6.024s-5.605 9.053-5.357 14.339l.269 5.681-10.144-5.911c-9.255-5.407-21.188-2.271-26.606 7.004-1.619 2.783-2.511 5.931-2.616 9.142h-24.094c-26.114 0-47.36-21.246-47.36-47.36s21.246-47.36 47.36-47.36c4.143 0 7.5-3.358 7.5-7.5 0-48.534 39.485-88.02 88.02-88.02 16.212 0 32.057 4.443 45.821 12.85 1.762 1.076 3.888 1.378 5.877.837 1.991-.542 3.671-1.879 4.645-3.697 8.269-15.445 24.273-25.04 41.768-25.04 17.502 0 33.51 9.595 41.777 25.04.974 1.819 2.653 3.156 4.645 3.698 1.991.541 4.116.239 5.877-.837 13.765-8.407 29.609-12.85 45.821-12.85 19.488 0 37.945 6.237 53.373 18.037 3.292 2.517 7.999 1.888 10.514-1.401 2.517-3.29 1.89-7.997-1.4-10.514-18.068-13.818-39.675-21.122-62.486-21.122-16.467 0-32.616 3.921-47.134 11.394-11.6-16.477-30.517-26.444-50.986-26.444-20.465 0-39.378 9.966-50.977 26.445-14.518-7.474-30.667-11.395-47.134-11.395-54.427 0-99.131 42.422-102.779 95.94-30.979 3.606-55.102 30.009-55.102 61.938 0 34.385 27.975 62.36 62.36 62.36h30.41c1.006.922 2.111 1.749 3.313 2.45l31.889 18.589.194 4.842c.2 4.978-1.629 9.659-5.15 13.18-3.524 3.524-8.204 5.366-13.193 5.154l-4.834-.194-18.389-31.537c-5.268-9.037-16.546-12.534-25.665-7.966-4.807 2.396-8.441 6.714-9.973 11.848-1.531 5.137-.859 10.735 1.838 15.351l5.92 10.159-5.676-.266c-5.295-.262-10.51 1.69-14.341 5.34-3.834 3.653-6.033 8.785-6.033 14.082v18.56c0 5.292 2.196 10.422 6.025 14.075 3.828 3.652 9.052 5.606 14.34 5.357l5.679-.269-8.472 14.538c-2.821 4.838-2.841 10.624-.052 15.479 2.44 4.248 6.58 6.997 11.327 7.617 2.525 1.151 5.277 1.753 8.062 1.753 6.891 0 13.333-3.695 16.819-9.653l18.59-31.889 4.802-.193c.843-.03 1.599-.013 2.3.052 4.124.393 7.78-2.644 8.167-6.769.386-4.124-2.645-7.78-6.769-8.166-1.354-.127-2.737-.161-4.271-.107l-8.94.36c-2.559.103-4.888 1.504-6.178 3.717l-20.654 35.429c-.812 1.389-2.258 2.218-3.866 2.218-.791 0-1.541-.203-2.229-.603-1.145-.667-2.446-1.018-3.771-1.018-.114 0-.256 0-.383-.222-.129-.225-.054-.355.003-.452l15.42-26.46c1.384-2.375 1.358-5.316-.066-7.666-1.426-2.35-4.014-3.72-6.768-3.602l-19.457.92c-1.674.075-2.764-.735-3.279-1.226-.516-.492-1.38-1.564-1.38-3.223v-18.56c0-1.659.864-2.73 1.38-3.221.514-.489 1.616-1.288 3.28-1.217l19.46.91c2.754.119 5.34-1.254 6.765-3.604 1.424-2.349 1.449-5.29.066-7.664l-12.864-22.077c-.844-1.442-.625-2.814-.419-3.504.205-.688.775-1.955 2.302-2.715 2.041-1.022 4.731-.078 6.002 2.102l20.46 35.09c1.29 2.212 3.619 3.613 6.178 3.716l8.941.36c9.071.358 17.979-3.112 24.402-9.536 6.423-6.422 9.897-15.312 9.532-24.39l-.36-8.95c-.104-2.559-1.505-4.888-3.717-6.178l-35.441-20.661c-1.381-.804-2.205-2.248-2.205-3.86 0-.792.202-1.542.595-2.216 1.239-2.122 3.971-2.842 6.089-1.604l22.069 12.86c2.375 1.384 5.316 1.358 7.666-.067s3.731-4.021 3.602-6.767l-.919-19.458c-.078-1.653.734-2.764 1.226-3.278.492-.516 1.564-1.38 3.223-1.38h18.56c1.658 0 2.73.864 3.223 1.38.491.515 1.304 1.625 1.227 3.276l-.92 19.46c-.13 2.745 1.252 5.341 3.602 6.767s5.291 1.451 7.666.067l22.072-12.862c1.075-.626 2.323-.777 3.514-.421.687.205 1.95.774 2.711 2.303 1.022 2.041.083 4.731-2.101 6.001l-35.09 20.46c-2.213 1.29-3.613 3.619-3.717 6.177l-.36 8.951c-.365 9.077 3.109 17.967 9.532 24.389 6.426 6.425 15.332 9.892 24.403 9.536l8.95-.36c2.559-.103 4.889-1.505 6.179-3.718l20.648-35.436c.626-1.074 1.638-1.818 2.85-2.096.701-.161 2.092-.29 3.502.657 1.894 1.275 2.398 4.091 1.131 6.271l-12.66 21.71c-1.385 2.374-1.359 5.315.064 7.665s4.003 3.728 6.765 3.605l19.473-.911c1.636-.083 2.754.729 3.268 1.218.516.491 1.38 1.562 1.38 3.221v18.56c0 1.658-.864 2.731-1.38 3.223-.515.491-1.6 1.302-3.276 1.226l-19.46-.92c-2.759-.12-5.342 1.253-6.768 3.603-1.425 2.351-1.45 5.292-.065 7.667l12.868 22.067c.398.685.601 1.433.601 2.225 0 1.608-.829 3.054-2.204 3.859-2.118 1.233-4.851.51-6.085-1.605l-20.65-35.44c-1.29-2.213-3.62-3.615-6.179-3.718l-8.95-.36c-9.075-.358-17.976 3.11-24.4 9.534-6.425 6.424-9.9 15.318-9.535 24.402l.36 8.95c.104 2.559 1.505 4.889 3.718 6.178l35.436 20.648c1.077.628 1.824 1.643 2.102 2.857.16.7.287 2.085-.662 3.495-1.276 1.896-4.081 2.405-6.263 1.13l-21.72-12.66c-2.373-1.384-5.316-1.359-7.665.066-2.351 1.425-3.732 4.022-3.603 6.767l.919 19.458c.078 1.653-.734 2.764-1.226 3.278-.492.516-1.564 1.38-3.223 1.38h-18.56c-1.658 0-2.73-.864-3.223-1.38-.491-.515-1.304-1.625-1.227-3.276l.92-19.46c.13-2.746-1.252-5.342-3.603-6.767s-5.293-1.451-7.667-.066l-22.062 12.866c-.688.4-1.438.603-2.229.603-1.608 0-3.055-.83-3.859-2.204-1.233-2.118-.511-4.851 1.604-6.086l35.439-20.65c2.214-1.29 3.615-3.619 3.719-6.178l.359-8.935c.115-2.705-.109-5.408-.666-8.033-.859-4.052-4.841-6.641-8.893-5.781-4.053.859-6.641 4.841-5.781 8.893.296 1.395.415 2.837.353 4.302l-.194 4.842-31.895 18.584c-9.254 5.407-12.398 17.335-7 26.606 3.481 5.946 9.925 9.64 16.813 9.64 3.428 0 6.807-.912 9.778-2.641l10.147-5.918-.269 5.678c-.247 5.283 1.705 10.508 5.358 14.336 3.653 3.829 8.783 6.024 14.074 6.024h18.56c5.291 0 10.421-2.196 14.074-6.024s5.605-9.053 5.357-14.339l-.268-5.679 9.791 5.707c9.022 5.275 20.559 2.768 26.266-5.704 3-4.455 4.036-10.002 2.843-15.22-1.194-5.223-4.535-9.767-9.168-12.47l-31.887-18.58-.194-4.841c-.2-4.983 1.63-9.668 5.153-13.192 3.523-3.523 8.227-5.359 13.19-5.152l4.842.194 18.585 31.895c5.406 9.255 17.335 12.397 26.604 7 5.946-3.481 9.641-9.923 9.641-16.812 0-3.43-.913-6.81-2.642-9.778l-5.918-10.148 5.678.269c5.266.245 10.509-1.704 14.337-5.357 3.829-3.653 6.025-8.784 6.025-14.075v-18.56c0-5.296-2.199-10.429-6.033-14.082-3.83-3.649-9.051-5.596-14.328-5.34l-5.683.266 5.716-9.802c5.254-9.03 2.745-20.566-5.72-26.267-4.46-2.997-10.015-4.028-15.229-2.831-5.217 1.197-9.755 4.534-12.454 9.16l-18.58 31.887-4.841.194c-4.989.211-9.67-1.63-13.194-5.154-3.521-3.521-5.351-8.202-5.15-13.18l.194-4.843 31.533-18.386c1.31-.762 2.489-1.663 3.558-2.653h233.992c34.386 0 62.36-27.975 62.36-62.36 0-31.931-24.122-58.333-55.099-61.941z"/><path d="m367.169 426.094c1.457-4.912.824-10.274-1.737-14.713l-4.993-8.646c-2.561-4.437-6.888-7.667-11.87-8.861-4.983-1.193-10.305-.276-14.6 2.519l-8.332 5.422.53-9.927c.273-5.117-1.592-10.184-5.117-13.902s-8.485-5.851-13.609-5.851h-9.984c-5.124 0-10.085 2.133-13.61 5.851s-5.391 8.785-5.117 13.902l.53 9.927-8.332-5.422c-4.296-2.795-9.62-3.713-14.6-2.519-4.982 1.194-9.31 4.424-11.87 8.86l-4.992 8.647c-2.562 4.438-3.195 9.8-1.738 14.712 1.458 4.912 4.914 9.061 9.481 11.382l8.861 4.505-8.862 4.505c-4.567 2.321-8.022 6.47-9.48 11.382-1.457 4.912-.824 10.274 1.738 14.711l4.992 8.646c2.561 4.437 6.888 7.667 11.87 8.861 4.982 1.192 10.304.276 14.6-2.519l8.332-5.422-.53 9.927c-.273 5.117 1.592 10.184 5.117 13.902s8.486 5.851 13.61 5.851h9.984c5.124 0 10.084-2.133 13.609-5.851s5.391-8.785 5.117-13.902l-.53-9.927 8.332 5.422c4.295 2.795 9.619 3.712 14.6 2.519 4.982-1.194 9.31-4.424 11.87-8.86l4.993-8.648c2.562-4.438 3.194-9.8 1.737-14.712-1.458-4.912-4.913-9.06-9.48-11.381l-8.862-4.504 8.862-4.505c4.567-2.32 8.022-6.469 9.48-11.381zm-14.381-4.267c-.171.578-.646 1.642-1.896 2.278l-22.015 11.191c-2.517 1.279-4.102 3.863-4.102 6.686s1.585 5.407 4.102 6.686l22.015 11.19c1.251.636 1.726 1.7 1.896 2.277.172.578.354 1.729-.347 2.944l-4.993 8.648c-.702 1.215-1.789 1.632-2.375 1.773-.588.139-1.747.261-2.923-.504l-20.698-13.47c-2.366-1.54-5.397-1.62-7.841-.209-2.444 1.412-3.89 4.076-3.739 6.895l1.316 24.661c.075 1.401-.609 2.345-1.024 2.782s-1.32 1.171-2.724 1.171h-9.984c-1.404 0-2.31-.734-2.725-1.171s-1.1-1.38-1.024-2.782l1.316-24.661c.15-2.819-1.295-5.484-3.739-6.895-1.162-.671-2.457-1.005-3.75-1.005-1.426 0-2.85.406-4.091 1.214l-20.698 13.47c-1.179.766-2.337.644-2.923.504-.586-.141-1.673-.558-2.375-1.773l-4.992-8.647c-.702-1.216-.52-2.367-.348-2.945.171-.578.646-1.642 1.896-2.277l22.016-11.19c2.517-1.279 4.102-3.863 4.102-6.686s-1.585-5.407-4.102-6.686l-22.015-11.191c-1.252-.636-1.727-1.7-1.897-2.278-.172-.578-.354-1.728.348-2.944l4.992-8.647c.702-1.215 1.789-1.632 2.375-1.773s1.746-.262 2.923.504l20.698 13.47c2.366 1.54 5.396 1.62 7.841.209 2.444-1.412 3.89-4.076 3.739-6.895l-1.316-24.661c-.075-1.401.609-2.344 1.024-2.782s1.32-1.171 2.725-1.171h9.984c1.403 0 2.309.734 2.724 1.171.415.438 1.1 1.381 1.024 2.782l-1.316 24.661c-.15 2.819 1.295 5.483 3.739 6.895 2.443 1.411 5.475 1.331 7.841-.209l20.698-13.47c1.177-.767 2.336-.645 2.923-.504.586.141 1.673.558 2.375 1.774l4.993 8.646c.702 1.215.519 2.366.347 2.944z"/><path d="m488.015 308.103c1.457-4.912.824-10.274-1.737-14.712l-4.993-8.646c-2.561-4.437-6.887-7.667-11.869-8.861-4.986-1.195-10.306-.276-14.601 2.519l-8.332 5.422.53-9.927c.273-5.117-1.592-10.184-5.117-13.902s-8.485-5.851-13.609-5.851h-9.985c-5.124 0-10.084 2.133-13.609 5.851s-5.391 8.785-5.117 13.902l.53 9.927-8.333-5.423c-4.294-2.794-9.616-3.711-14.6-2.518-4.982 1.194-9.309 4.424-11.869 8.86l-4.992 8.646c-2.562 4.437-3.195 9.799-1.738 14.711s4.913 9.062 9.48 11.384l8.861 4.504-8.862 4.505c-4.567 2.322-8.022 6.471-9.479 11.383s-.823 10.274 1.738 14.71l4.991 8.646c2.562 4.438 6.888 7.667 11.871 8.862 4.983 1.193 10.304.276 14.6-2.519l8.332-5.422-.53 9.927c-.273 5.117 1.592 10.184 5.117 13.902s8.485 5.851 13.609 5.851h9.985c5.124 0 10.084-2.133 13.609-5.851s5.391-8.785 5.117-13.902l-.53-9.927 8.332 5.422c4.296 2.795 9.616 3.712 14.6 2.519 4.983-1.194 9.31-4.424 11.87-8.86l4.993-8.648c2.562-4.437 3.194-9.799 1.737-14.71-1.458-4.912-4.913-9.061-9.479-11.383-.001 0-.001 0-.001 0l-8.861-4.504 8.862-4.505c4.566-2.322 8.021-6.471 9.479-11.382zm-14.38-4.267c-.172.578-.646 1.642-1.897 2.278l-22.015 11.19c-2.517 1.279-4.102 3.863-4.102 6.686s1.585 5.407 4.102 6.686l22.014 11.19c1.252.636 1.727 1.701 1.898 2.279s.354 1.729-.348 2.943l-4.994 8.648c-.701 1.215-1.789 1.632-2.374 1.773-.588.139-1.747.261-2.923-.504l-20.698-13.47c-2.366-1.54-5.397-1.62-7.841-.209s-3.89 4.076-3.739 6.895l1.316 24.661c.075 1.401-.609 2.345-1.024 2.782s-1.32 1.171-2.724 1.171h-9.985c-1.403 0-2.309-.734-2.724-1.171-.415-.438-1.1-1.381-1.024-2.782l1.316-24.661c.15-2.819-1.295-5.484-3.739-6.895-1.162-.671-2.457-1.005-3.75-1.005-1.426 0-2.85.406-4.091 1.214l-20.698 13.47c-1.177.766-2.335.645-2.923.504-.585-.141-1.673-.558-2.375-1.774l-4.992-8.647c-.702-1.215-.52-2.366-.348-2.944.171-.578.646-1.642 1.896-2.278l22.015-11.19c2.517-1.279 4.102-3.863 4.102-6.686s-1.585-5.407-4.102-6.686l-22.014-11.19c-1.252-.636-1.727-1.701-1.897-2.278-.172-.578-.354-1.729.348-2.945l4.992-8.647c.702-1.215 1.789-1.632 2.375-1.773.588-.14 1.748-.261 2.923.504l20.698 13.47c2.367 1.54 5.397 1.62 7.841.209s3.89-4.076 3.739-6.895l-1.316-24.661c-.075-1.401.609-2.345 1.024-2.782s1.32-1.171 2.724-1.171h9.985c1.403 0 2.309.734 2.724 1.171.415.438 1.1 1.381 1.024 2.782l-1.316 24.661c-.15 2.819 1.295 5.484 3.739 6.895 2.443 1.412 5.475 1.332 7.841-.209l20.697-13.47c1.178-.766 2.336-.644 2.924-.504.586.141 1.673.558 2.375 1.774l4.993 8.646c.701 1.215.519 2.367.348 2.945z"/></g></g></svg>