<svg height="512" viewBox="0 0 128 128" width="512" xmlns="http://www.w3.org/2000/svg"><g><g fill="#ffb655"><path d="m10.748 126.247 34.539-48.334h-24.758l34.299-34.298h-29.293l59.933-41.868-19.966 31.042h24.778l-33.396 35.202h19.471z"/><path d="m65.249 93.875h19.503l-27.5 32.372 56.625-40.872h-18.875l22.25-29.375z"/></g><g><path d="m75.384 45.948-4.924 5.192a1.75 1.75 0 1 0 2.54 2.408l4.924-5.192a1.75 1.75 0 0 0 -2.539-2.408z"/><path d="m77.991 67.37a1.749 1.749 0 0 0 -1.636-1.129h-15.4l3.945-4.152a1.75 1.75 0 1 0 -2.539-2.408l-6.742 7.106a1.749 1.749 0 0 0 1.269 2.954h14.861l-50.541 44.877 25.5-35.687a1.75 1.75 0 0 0 -1.423-2.768h-20.531l31.311-31.311a1.75 1.75 0 0 0 -1.237-2.988h-23.728l48.1-33.6-15.169 23.579a1.749 1.749 0 0 0 1.471 2.7h20.706l-2.721 2.868a1.75 1.75 0 1 0 2.539 2.408l5.524-5.822a1.75 1.75 0 0 0 -1.27-2.954h-21.572l18.232-28.35a1.75 1.75 0 0 0 -2.474-2.38l-59.933 41.867a1.75 1.75 0 0 0 1 3.184h25.067l-31.308 31.312a1.749 1.749 0 0 0 1.237 2.987h21.356l-32.561 45.566a1.75 1.75 0 0 0 2.586 2.327l65.608-58.256a1.751 1.751 0 0 0 .473-1.93z"/><path d="m118.5 54.774a1.752 1.752 0 0 0 -2.279-.189l-52 37.875a1.75 1.75 0 0 0 1.03 3.165h15.72l-25.053 29.489a1.75 1.75 0 0 0 2.358 2.552l33.029-23.84a1.75 1.75 0 0 0 -2.049-2.838l-21.329 15.395 18.158-21.375a1.75 1.75 0 0 0 -1.333-2.883h-14.128l38.076-27.725-15.093 19.918a1.75 1.75 0 0 0 1.393 2.807h13.46l-7.63 5.508a1.75 1.75 0 1 0 2.049 2.838l12.02-8.677a1.75 1.75 0 0 0 -1.024-3.169h-15.352l20.124-26.568a1.751 1.751 0 0 0 -.147-2.283z"/></g></g></svg>