<?xml version="1.0" encoding="iso-8859-1"?>
<!-- Generator: Adobe Illustrator 19.0.0, SVG Export Plug-In . SVG Version: 6.00 Build 0)  -->
<svg version="1.1" id="Capa_1" xmlns="http://www.w3.org/2000/svg" xmlns:xlink="http://www.w3.org/1999/xlink" x="0px" y="0px"
	 viewBox="0 0 512 512" style="enable-background:new 0 0 512 512;" xml:space="preserve">
<g>
	<g>
		<path d="M256,241c-8.284,0-15,6.716-15,15v16.066c0,8.284,6.716,15,15,15s15-6.716,15-15V256C271,247.716,264.284,241,256,241z"/>
	</g>
</g>
<g>
	<g>
		<path d="M437.021,315.98c-5.857-5.858-15.355-5.857-21.213,0.001l-11.361,11.363c-5.858,5.858-5.857,15.355,0,21.214
			c2.929,2.929,6.767,4.393,10.606,4.393c3.839,0,7.679-1.465,10.607-4.394l11.363-11.363
			C442.88,331.336,442.88,321.839,437.021,315.98z"/>
	</g>
</g>
<g>
	<g>
		<path d="M107.556,327.34l-11.363-11.362c-5.857-5.857-15.355-5.856-21.213,0.001c-5.857,5.858-5.857,15.355,0.002,21.214
			l11.364,11.362c2.928,2.929,6.767,4.393,10.605,4.393c3.839,0,7.678-1.465,10.607-4.394
			C113.415,342.696,113.415,333.199,107.556,327.34z"/>
	</g>
</g>
<g>
	<g>
		<path d="M334.77,79.223c-5.857-5.857-15.355-5.857-21.213,0L271,121.78V15c0-8.284-6.716-15-15-15s-15,6.716-15,15v106.78
			l-42.558-42.558c-5.857-5.857-15.355-5.857-21.213,0c-5.858,5.857-5.858,15.355,0,21.213l68.165,68.165
			c2.929,2.929,6.768,4.394,10.606,4.394s7.678-1.465,10.606-4.394l68.164-68.164C340.627,94.579,340.627,85.081,334.77,79.223z"/>
	</g>
</g>
<g>
	<g>
		<path d="M497,482h-82.11c-7.586-80.996-75.945-144.601-158.89-144.601S104.697,401.003,97.11,482H15c-8.284,0-15,6.716-15,15
			s6.716,15,15,15h96.4h289.2H497c8.284,0,15-6.716,15-15S505.284,482,497,482z"/>
	</g>
</g>
<g>
</g>
<g>
</g>
<g>
</g>
<g>
</g>
<g>
</g>
<g>
</g>
<g>
</g>
<g>
</g>
<g>
</g>
<g>
</g>
<g>
</g>
<g>
</g>
<g>
</g>
<g>
</g>
<g>
</g>
</svg>
